<svg width="417" height="220" viewBox="0 0 417 220" fill="none" xmlns="http://www.w3.org/2000/svg">
<mask id="mask0" mask-type="alpha" maskUnits="userSpaceOnUse" x="0" y="0" width="417" height="220">
<path d="M0.5 5.99999C0.5 2.96243 2.96243 0.5 6 0.5H410.906C413.944 0.5 416.406 2.96243 416.406 6V219.5H0.5V5.99999Z" fill="white" stroke="#F2F2F2"/>
</mask>
<g mask="url(#mask0)">
<rect width="425.945" height="222.292" fill="#FFC4C0"/>
<path d="M32.833 99.1875H29.0186V85.0781H32.833V99.1875ZM30.9326 78.1328C31.3883 78.1328 31.7985 78.2422 32.1631 78.4609C32.5277 78.6706 32.8148 78.9577 33.0244 79.3223C33.234 79.6868 33.3389 80.0924 33.3389 80.5391C33.3389 80.9857 33.234 81.3913 33.0244 81.7559C32.8148 82.1204 32.5277 82.4121 32.1631 82.6309C31.7985 82.8405 31.3883 82.9453 30.9326 82.9453C30.4769 82.9453 30.0667 82.8405 29.7021 82.6309C29.3376 82.4121 29.0505 82.1204 28.8408 81.7559C28.6312 81.3913 28.5264 80.9857 28.5264 80.5391C28.5264 80.0924 28.6312 79.6868 28.8408 79.3223C29.0505 78.9577 29.3376 78.6706 29.7021 78.4609C30.0667 78.2422 30.4769 78.1328 30.9326 78.1328ZM36.9072 78.748H52.7803V82.6719H40.9131V86.9512H47.4893V90.875H40.9131V99.1875H36.9072V78.748ZM58.6182 84.7637C60.0127 84.7637 61.2705 85.0918 62.3916 85.748C63.5127 86.3952 64.3923 87.2839 65.0303 88.4141C65.6683 89.5352 65.9873 90.7747 65.9873 92.1328C65.9873 93.4909 65.6683 94.735 65.0303 95.8652C64.3923 96.9863 63.5127 97.875 62.3916 98.5312C61.2705 99.1784 60.0127 99.502 58.6182 99.502C57.2236 99.502 55.9658 99.1784 54.8447 98.5312C53.7327 97.875 52.8577 96.9863 52.2197 95.8652C51.5817 94.735 51.2627 93.4909 51.2627 92.1328C51.2627 90.7747 51.5817 89.5352 52.2197 88.4141C52.8577 87.2839 53.7327 86.3952 54.8447 85.748C55.9658 85.0918 57.2236 84.7637 58.6182 84.7637ZM58.6182 95.7695C59.3018 95.7695 59.9124 95.61 60.4502 95.291C60.988 94.972 61.4072 94.5345 61.708 93.9785C62.0179 93.4225 62.1729 92.8073 62.1729 92.1328C62.1729 91.4583 62.0179 90.8431 61.708 90.2871C61.4072 89.7311 60.988 89.2936 60.4502 88.9746C59.9124 88.6556 59.3018 88.4961 58.6182 88.4961C57.9437 88.4961 57.333 88.6556 56.7861 88.9746C56.2484 89.2936 55.8245 89.7311 55.5146 90.2871C55.2139 90.8431 55.0635 91.4583 55.0635 92.1328C55.0635 92.8073 55.2139 93.4225 55.5146 93.9785C55.8245 94.5345 56.2484 94.972 56.7861 95.291C57.333 95.61 57.9437 95.7695 58.6182 95.7695ZM75.3252 84.7637C76.7197 84.7637 77.9775 85.0918 79.0986 85.748C80.2197 86.3952 81.0993 87.2839 81.7373 88.4141C82.3753 89.5352 82.6943 90.7747 82.6943 92.1328C82.6943 93.4909 82.3753 94.735 81.7373 95.8652C81.0993 96.9863 80.2197 97.875 79.0986 98.5312C77.9775 99.1784 76.7197 99.502 75.3252 99.502C73.9307 99.502 72.6729 99.1784 71.5518 98.5312C70.4398 97.875 69.5648 96.9863 68.9268 95.8652C68.2887 94.735 67.9697 93.4909 67.9697 92.1328C67.9697 90.7747 68.2887 89.5352 68.9268 88.4141C69.5648 87.2839 70.4398 86.3952 71.5518 85.748C72.6729 85.0918 73.9307 84.7637 75.3252 84.7637ZM75.3252 95.7695C76.0088 95.7695 76.6195 95.61 77.1572 95.291C77.695 94.972 78.1143 94.5345 78.415 93.9785C78.7249 93.4225 78.8799 92.8073 78.8799 92.1328C78.8799 91.4583 78.7249 90.8431 78.415 90.2871C78.1143 89.7311 77.695 89.2936 77.1572 88.9746C76.6195 88.6556 76.0088 88.4961 75.3252 88.4961C74.6507 88.4961 74.04 88.6556 73.4932 88.9746C72.9554 89.2936 72.5316 89.7311 72.2217 90.2871C71.9209 90.8431 71.7705 91.4583 71.7705 92.1328C71.7705 92.8073 71.9209 93.4225 72.2217 93.9785C72.5316 94.5345 72.9554 94.972 73.4932 95.291C74.04 95.61 74.6507 95.7695 75.3252 95.7695ZM99.2646 77.8457V99.1875H95.5049V98.2168C94.9945 98.627 94.4111 98.946 93.7549 99.1738C93.1077 99.3926 92.4059 99.502 91.6494 99.502C90.3187 99.502 89.1201 99.1784 88.0537 98.5312C86.9964 97.875 86.167 96.9863 85.5654 95.8652C84.973 94.7441 84.6768 93.5091 84.6768 92.1602C84.6768 90.7839 84.973 89.5306 85.5654 88.4004C86.167 87.2702 86.9964 86.3815 88.0537 85.7344C89.111 85.0872 90.3096 84.7637 91.6494 84.7637C92.3786 84.7637 93.0667 84.873 93.7139 85.0918C94.3701 85.3014 94.9489 85.6022 95.4502 85.9941V77.8457H99.2646ZM95.5596 92.1602C95.5596 91.4583 95.4092 90.8294 95.1084 90.2734C94.8076 89.7083 94.3838 89.2663 93.8369 88.9473C93.2992 88.6283 92.6794 88.4688 91.9775 88.4688C91.3122 88.4688 90.7106 88.6283 90.1729 88.9473C89.6442 89.2663 89.2295 89.7083 88.9287 90.2734C88.6279 90.8385 88.4775 91.4674 88.4775 92.1602C88.4775 92.8346 88.6279 93.4499 88.9287 94.0059C89.2295 94.5618 89.6442 94.9993 90.1729 95.3184C90.7106 95.6374 91.3122 95.7969 91.9775 95.7969C92.6702 95.7969 93.29 95.6374 93.8369 95.3184C94.3838 94.9993 94.8076 94.5618 95.1084 94.0059C95.4092 93.4499 95.5596 92.8346 95.5596 92.1602ZM58.8525 137.875C58.8525 139.844 58.376 141.617 57.4229 143.195C56.4854 144.758 55.1807 145.984 53.5088 146.875C51.8525 147.75 49.9854 148.188 47.9072 148.188H30.8213V113.148H47.9541C50.001 113.148 51.8291 113.578 53.4385 114.438C55.0635 115.297 56.3291 116.492 57.2354 118.023C58.1416 119.555 58.5947 121.289 58.5947 123.227C58.5947 124.68 58.3135 126.031 57.751 127.281C57.1885 128.516 56.3916 129.57 55.3604 130.445C56.4697 131.32 57.3291 132.398 57.9385 133.68C58.5479 134.961 58.8525 136.359 58.8525 137.875ZM37.6416 119.734V127.398H47.9541C48.6885 127.398 49.3447 127.234 49.9229 126.906C50.5166 126.578 50.9775 126.125 51.3057 125.547C51.6338 124.953 51.7979 124.289 51.7979 123.555C51.7979 122.82 51.6338 122.164 51.3057 121.586C50.9775 121.008 50.5166 120.555 49.9229 120.227C49.3447 119.898 48.6885 119.734 47.9541 119.734H37.6416ZM52.0322 137.734C52.0322 137 51.8604 136.336 51.5166 135.742C51.1885 135.148 50.7275 134.688 50.1338 134.359C49.54 134.016 48.876 133.844 48.1416 133.844H37.6416V141.602H48.1416C48.876 141.602 49.54 141.438 50.1338 141.109C50.7275 140.766 51.1885 140.297 51.5166 139.703C51.8604 139.109 52.0322 138.453 52.0322 137.734ZM84.0947 132.883V148.188H77.6963V146.711C76.9307 147.398 76.0557 147.906 75.0713 148.234C74.0869 148.562 72.9307 148.727 71.6025 148.727C69.9619 148.727 68.501 148.406 67.2197 147.766C65.9541 147.125 64.9697 146.234 64.2666 145.094C63.5635 143.938 63.2119 142.633 63.2119 141.18C63.2119 138.852 63.9775 137.078 65.5088 135.859C67.04 134.625 69.0713 133.906 71.6025 133.703L77.6963 133.164V132.742C77.6963 132.148 77.5244 131.609 77.1807 131.125C76.8369 130.641 76.3682 130.258 75.7744 129.977C75.1963 129.695 74.5479 129.555 73.8291 129.555C72.8604 129.555 72.0244 129.789 71.3213 130.258C70.6338 130.711 70.2041 131.312 70.0322 132.062H63.7744C63.8838 130.438 64.3838 128.969 65.2744 127.656C66.165 126.344 67.3525 125.32 68.8369 124.586C70.3213 123.836 71.9854 123.461 73.8291 123.461C75.8291 123.461 77.6025 123.867 79.1494 124.68C80.7119 125.492 81.9229 126.617 82.7822 128.055C83.6572 129.477 84.0947 131.086 84.0947 132.883ZM77.6963 139.703V137.969L72.6572 138.391C71.6416 138.484 70.8916 138.75 70.4072 139.188C69.9229 139.625 69.6807 140.195 69.6807 140.898C69.6807 141.602 69.9854 142.188 70.5947 142.656C71.2041 143.109 72.04 143.336 73.1025 143.336C74.5244 143.336 75.6416 143.016 76.4541 142.375C77.2822 141.719 77.6963 140.828 77.6963 139.703ZM75.5166 121.023H71.1104L73.0791 113.57H81.1416L75.5166 121.023ZM98.8838 142.727C99.9307 142.727 100.759 142.539 101.368 142.164C101.978 141.773 102.282 141.266 102.282 140.641C102.282 140.219 102.118 139.875 101.79 139.609C101.462 139.344 100.985 139.164 100.36 139.07C99.6416 138.977 99.0791 138.914 98.6729 138.883C97.5635 138.789 96.6104 138.672 95.8135 138.531C93.6104 138.188 91.9541 137.398 90.8447 136.164C89.7354 134.914 89.1807 133.383 89.1807 131.57C89.1807 130.039 89.5791 128.656 90.376 127.422C91.1885 126.188 92.3135 125.219 93.751 124.516C95.2041 123.812 96.8682 123.461 98.7432 123.461C100.571 123.461 102.212 123.805 103.665 124.492C105.118 125.18 106.251 126.133 107.063 127.352C107.892 128.57 108.313 129.961 108.329 131.523H101.954C101.954 130.883 101.657 130.375 101.063 130C100.47 129.609 99.6963 129.414 98.7432 129.414C97.7744 129.414 97.001 129.602 96.4229 129.977C95.8447 130.352 95.5557 130.82 95.5557 131.383C95.5557 132.133 96.1494 132.617 97.3369 132.836C97.6494 132.883 98.3682 132.961 99.4932 133.07C100.618 133.18 101.47 133.273 102.048 133.352C104.22 133.633 105.86 134.414 106.97 135.695C108.095 136.961 108.657 138.516 108.657 140.359C108.657 141.953 108.243 143.391 107.415 144.672C106.603 145.938 105.454 146.93 103.97 147.648C102.485 148.367 100.774 148.727 98.8369 148.727C96.9307 148.727 95.2275 148.375 93.7275 147.672C92.2275 146.969 91.0557 145.992 90.2119 144.742C89.3682 143.477 88.9463 142.047 88.9463 140.453H95.3213C95.3213 141.156 95.6416 141.711 96.2822 142.117C96.9385 142.523 97.8057 142.727 98.8838 142.727ZM120.024 148.188H113.485V124H120.024V148.188ZM116.767 112.094C117.548 112.094 118.251 112.281 118.876 112.656C119.501 113.016 119.993 113.508 120.353 114.133C120.712 114.758 120.892 115.453 120.892 116.219C120.892 116.984 120.712 117.68 120.353 118.305C119.993 118.93 119.501 119.43 118.876 119.805C118.251 120.164 117.548 120.344 116.767 120.344C115.985 120.344 115.282 120.164 114.657 119.805C114.032 119.43 113.54 118.93 113.181 118.305C112.821 117.68 112.642 116.984 112.642 116.219C112.642 115.453 112.821 114.758 113.181 114.133C113.54 113.508 114.032 113.016 114.657 112.656C115.282 112.281 115.985 112.094 116.767 112.094ZM137.462 123.461C139.681 123.461 141.696 123.953 143.509 124.938C145.321 125.922 146.774 127.281 147.868 129.016L142.595 132.742C142.017 131.836 141.29 131.133 140.415 130.633C139.556 130.117 138.571 129.859 137.462 129.859C136.321 129.859 135.29 130.133 134.368 130.68C133.462 131.211 132.751 131.953 132.235 132.906C131.72 133.859 131.462 134.922 131.462 136.094C131.462 137.266 131.72 138.328 132.235 139.281C132.751 140.219 133.462 140.961 134.368 141.508C135.29 142.055 136.321 142.328 137.462 142.328C138.571 142.328 139.556 142.07 140.415 141.555C141.29 141.039 142.017 140.336 142.595 139.445L147.868 143.172C146.774 144.906 145.321 146.266 143.509 147.25C141.696 148.234 139.681 148.727 137.462 148.727C135.087 148.727 132.946 148.172 131.04 147.062C129.134 145.953 127.642 144.438 126.563 142.516C125.485 140.578 124.946 138.438 124.946 136.094C124.946 133.75 125.485 131.617 126.563 129.695C127.642 127.758 129.134 126.234 131.04 125.125C132.946 124.016 135.087 123.461 137.462 123.461ZM163.009 123.461C165.399 123.461 167.556 124.023 169.478 125.148C171.399 126.258 172.907 127.781 174.001 129.719C175.095 131.641 175.642 133.766 175.642 136.094C175.642 138.422 175.095 140.555 174.001 142.492C172.907 144.414 171.399 145.938 169.478 147.062C167.556 148.172 165.399 148.727 163.009 148.727C160.618 148.727 158.462 148.172 156.54 147.062C154.634 145.938 153.134 144.414 152.04 142.492C150.946 140.555 150.399 138.422 150.399 136.094C150.399 133.766 150.946 131.641 152.04 129.719C153.134 127.781 154.634 126.258 156.54 125.148C158.462 124.023 160.618 123.461 163.009 123.461ZM163.009 142.328C164.181 142.328 165.228 142.055 166.149 141.508C167.071 140.961 167.79 140.211 168.306 139.258C168.837 138.305 169.103 137.25 169.103 136.094C169.103 134.938 168.837 133.883 168.306 132.93C167.79 131.977 167.071 131.227 166.149 130.68C165.228 130.133 164.181 129.859 163.009 129.859C161.853 129.859 160.806 130.133 159.868 130.68C158.946 131.227 158.22 131.977 157.688 132.93C157.173 133.883 156.915 134.938 156.915 136.094C156.915 137.25 157.173 138.305 157.688 139.258C158.22 140.211 158.946 140.961 159.868 141.508C160.806 142.055 161.853 142.328 163.009 142.328Z" fill="#EF5753"/>
<path d="M316.351 -80.2087C499.997 -147.423 670.311 -68.6446 731.607 -7.46149C792.903 53.7216 759.415 184.415 635.997 199.163C512.58 213.911 392.864 221.285 322.105 199.163C251.345 177.04 132.705 -12.9941 316.351 -80.2087Z" fill="#FFF4F2"/>
<g clip-path="url(#clip0)">
<g clip-path="url(#clip1)">
<path d="M268.83 151.784C269.104 148.895 261.359 186.06 266.672 215.619C269.876 233.446 312.364 228.92 312.364 228.92L309.333 170.636" fill="#D06060"/>
<path d="M282.914 161.269L280.111 236.157C280.111 236.157 285.545 242.25 333.392 227.959C345.993 224.196 350.243 222.363 350.243 222.363L343.806 165.12L282.914 161.269Z" fill="white"/>
<path d="M323.012 89.3075C321.916 83.7837 317.662 74.6112 312.51 73.6483C306.262 72.4827 300.068 76.1315 298.698 81.9086V82.01C297.986 85.0506 298.808 88.0912 300.617 90.473C301.548 91.6386 301.548 93.2603 300.726 94.4765L290.422 109.832C289.381 112.416 296.451 112.011 299.246 114.038C299.246 114.038 302.864 117.078 309.112 115.153C310.372 114.747 308.673 118.447 310.153 117.585C313.058 115.862 319.854 127.062 319.087 123.92L316.292 97.9226C316.127 96.605 316.771 95.8532 317.302 95.7549C318.398 95.5522 319.614 94.7299 320.491 94.3245C322.354 93.3616 323.396 91.3346 323.012 89.3075Z" fill="#C599C6"/>
<path d="M310.812 84.3408C310.866 84.6955 310.921 85.0502 310.921 85.405C310.976 85.6584 311.14 85.9117 311.469 85.9117C311.743 85.9117 312.017 85.709 312.017 85.405C311.962 85.0502 311.908 84.6955 311.908 84.3408C311.853 84.0874 311.688 83.834 311.36 83.834C311.086 83.834 310.812 84.0367 310.812 84.3408Z" fill="#771212"/>
<path d="M313.935 83.7324C314.045 84.1885 314.155 84.5939 314.264 85.05C314.429 85.6581 315.415 85.4047 315.306 84.7966C315.196 84.3405 315.086 83.9351 314.977 83.479C314.757 82.8709 313.771 83.1243 313.935 83.7324Z" fill="#771212"/>
<path d="M344.399 172.114C344.399 172.114 347.587 136.644 319.142 127.974C318.43 124.325 335.05 131.115 333.241 127.974C330.585 113.489 312.376 108.62 306.676 106.592C280.478 97.1666 265.234 120.879 265.234 136.151C265.234 154.379 265.234 149.452 265.234 159.798C260.521 166.639 316.24 174.577 316.24 174.577C330.585 176.548 344.399 174.577 344.399 172.114Z" fill="#E4002B"/>
<path d="M315.415 115.812L342.381 154.022C343.806 157.316 331.803 169.022 328.459 170.796C323.527 173.482 310.866 157.873 301.603 166.843C300.069 167.806 290.258 157.063 289.71 155.441L279.077 118.295L315.415 115.812Z" fill="#E4002B"/>
<path d="M343.88 109.574L344.593 106.838L361.693 105.115L363.556 107.243C364.324 108.105 364.378 109.321 363.776 110.284L362.296 112.463L361.419 114.135L366.735 118.493L368.708 124.524L369.695 144.237L359.884 152.244L347.443 150.167L342.236 119.912L344.483 110.537L343.88 109.574Z" fill="#C25757"/>
<path d="M336.81 146.214C336.371 145.91 334.836 135.065 334.836 135.065C334.836 135.065 332.644 121.534 333.521 119.912C334.288 118.494 340.646 110.335 343.113 107.851C343.661 107.345 344.318 106.99 345.086 106.889C346.017 106.787 347.168 106.838 347.552 107.649L349.032 111.044C349.525 112.21 349.032 113.578 347.881 114.186L345.963 115.2C344.976 115.706 344.428 116.771 344.647 117.784V117.885L346.785 119.71C347.333 120.166 347.662 120.774 347.716 121.433L350.621 148.444L348.155 156.755L336.207 149.71L336.81 146.214Z" fill="#FFDDDB"/>
<path d="M321.759 124.22L321.156 121.433L336.064 113.426L338.694 114.693C339.791 115.199 340.393 116.314 340.229 117.429L339.845 119.963L339.736 121.787L346.532 123.815L351.026 128.578L362.463 150.438L355.137 157.261L343.518 165.268L324.828 134.305L322.745 124.929L321.759 124.22Z" fill="#D06060"/>
<path d="M331.35 160.404C330.802 160.302 324.664 150.978 324.664 150.978C324.664 150.978 316.716 139.474 316.771 137.599C316.826 136.028 319.073 126.146 320.224 122.953C320.443 122.294 320.992 121.686 321.649 121.332C322.471 120.876 323.513 120.521 324.225 121.078L327.075 123.612C328.062 124.474 328.171 125.893 327.404 126.906L326.089 128.528C325.431 129.389 325.376 130.555 326.034 131.416L326.089 131.467L328.829 132.328C329.487 132.531 330.09 132.987 330.419 133.545L344.943 157.16L346.368 165.674H332.481L331.35 160.404Z" fill="#FFC4C0"/>
<path d="M292.265 169.072C292.265 169.072 312.27 168.768 312.927 147.383C312.927 147.383 310.954 140.44 298.732 148.396C283.934 157.923 288.264 166.336 292.265 169.072Z" fill="#771212"/>
<path d="M292.177 171.604C287.902 169.172 283.353 167.55 278.804 165.624C269.485 160.202 266.581 155.996 266.527 155.793C262.252 150.37 258.47 144.593 255.291 138.563C254.907 137.853 254.03 137.397 253.153 137.752C249.043 139.272 245.097 141.097 241.26 143.174C240.493 143.58 240.438 144.239 240.712 144.796C240.767 144.948 240.821 145.1 240.931 145.252C244.822 150.573 250.632 154.222 256.168 157.921C256.99 158.479 257.812 159.036 258.634 159.594C250.523 158.935 242.411 158.783 234.299 159.188C233.532 159.239 233.094 159.695 232.929 160.202C232.765 160.607 232.765 161.114 233.148 161.57C237.259 166.486 241.37 171.452 245.48 176.368C246.138 177.179 247.344 177.128 248.056 176.418C252.386 171.858 257.209 167.854 262.526 164.357C266.307 166.536 270.144 168.513 274.145 170.287C278.694 172.314 283.572 173.834 287.902 176.266C291.684 178.344 295.794 173.631 292.177 171.604Z" fill="white"/>
<path d="M316.636 87.1196C316.61 86.7244 316.24 86.3944 315.709 86.8871C315.061 87.1196 314.662 87.0401 313.086 87.1197C312.019 87.1776 311.592 87.1193 311.664 87.2784C312.106 88.2576 312.424 88.3736 314.409 88.3768C316.18 88.3916 316.735 88.0474 316.636 87.1196Z" fill="#771212"/>
<path d="M300.398 90.6753V90.7766L300.508 83.7832L298.863 87.2799L300.398 90.6753Z" fill="#0D0919"/>
<path d="M299.685 83.4791L291.683 91.03C291.628 91.0807 291.573 91.182 291.573 91.2327L289.71 98.7329C289.655 98.9863 289.819 99.189 290.039 99.2903C290.203 99.341 290.368 99.2903 290.477 99.189L300.178 90.4219C300.288 90.3205 300.343 90.2192 300.343 90.1178L300.562 83.8339C300.562 83.5805 300.343 83.3778 300.123 83.3778C299.904 83.3271 299.795 83.3778 299.685 83.4791Z" fill="#FF9595"/>
<path d="M302.206 84.6956C302.206 84.6956 290.148 81.0469 287.517 80.0333C285.544 79.2732 279.954 84.2395 277.268 86.824C276.994 87.1281 276.994 87.5335 277.268 87.8376C277.432 87.9896 277.652 88.0403 277.926 88.0403L302.206 84.6956Z" fill="#FF9595"/>
<path d="M297.822 83.7327C299.575 83.0739 301.877 84.1888 302.919 86.1145C303.96 88.0909 303.357 90.2193 301.603 90.8275C299.849 91.4863 297.548 90.3714 296.506 88.4456C295.465 86.4692 296.068 84.3408 297.822 83.7327Z" fill="#C599C6"/>
<path d="M323.83 79.7164C325.584 80.4259 326.351 82.7064 325.529 84.7841C324.707 86.8619 322.679 87.9261 320.925 87.2166C319.171 86.5071 318.404 84.2267 319.226 82.1489C320.048 80.0712 322.076 79.0069 323.83 79.7164Z" fill="#C599C6"/>
<path fill-rule="evenodd" clip-rule="evenodd" d="M302.023 90.4171C302.174 90.2908 302.397 90.3136 302.52 90.4679C303.974 92.2857 308.61 95.8983 315.334 95.4937C315.529 95.482 315.696 95.6338 315.707 95.8329C315.719 96.0319 315.57 96.2028 315.376 96.2145C308.387 96.635 303.545 92.8895 301.974 90.9251C301.85 90.7708 301.873 90.5433 302.023 90.4171Z" fill="#771212"/>
<path d="M302.207 84.6955L303.96 82.6685L297.109 83.682L302.207 84.6955Z" fill="#771212"/>
<path d="M297.207 83.6967L320.61 80.8588C321.432 80.7574 322.035 80.0479 321.925 79.2371C321.925 79.1864 321.925 79.1357 321.925 79.0851L320.939 74.9802C320.61 73.8653 319.623 72.0916 318.582 71.4328C317.157 70.5713 314.91 69.5071 312.553 69.6592C308.552 69.8112 299.344 69.9632 297.152 75.0309C295.836 76.6019 297.207 83.6967 297.207 83.6967Z" fill="#FF9595"/>
<path d="M358.744 134.673L367.777 128.269V120.387C374.152 123.835 376.809 134.673 376.278 136.151C375.746 137.629 367.777 142.063 366.183 142.063C362.422 142.644 365.362 139.869 368.87 137.251C366.658 138.317 364.303 138.905 362.995 139.107C355.769 141.078 364.943 134.673 370.433 131.225C358.957 138.319 357.859 136.48 358.744 134.673Z" fill="#A676A7"/>
<path fill-rule="evenodd" clip-rule="evenodd" d="M294.943 114.969C295.236 114.946 295.492 115.148 295.517 115.419C296.041 121.248 300.042 135.4 311.812 145.144C312.031 145.325 312.05 145.636 311.854 145.839C311.659 146.042 311.323 146.06 311.104 145.879C299.071 135.917 294.997 121.495 294.458 115.501C294.434 115.23 294.651 114.992 294.943 114.969Z" fill="#771212"/>
<path fill-rule="evenodd" clip-rule="evenodd" d="M268.36 143.947C268.635 143.851 268.941 143.979 269.045 144.233C271.277 149.704 279.321 162.29 293.526 168.658C293.79 168.776 293.901 169.071 293.773 169.316C293.645 169.561 293.328 169.663 293.064 169.545C278.54 163.035 270.346 150.208 268.051 144.582C267.947 144.327 268.086 144.043 268.36 143.947Z" fill="#771212"/>
<path d="M343.867 151.916C328.565 158.615 310.395 149.124 305.082 145.019C294.455 146.497 283.829 158.813 288.611 163.739C323.146 178.026 344.398 168.009 352.899 161.276C367.351 150.635 367.244 146.004 365.65 146.989L359.806 150.438C363.525 143.541 363.348 143.376 361.4 143.541L356.087 148.96L357.681 146.497C362.994 138.614 358.212 141.57 356.618 143.048C356.318 143.327 351.659 147.153 349.18 148.96C348.826 146.168 347.586 140.782 345.461 141.57C343.336 142.358 343.513 148.796 343.867 151.916Z" fill="#A676A7"/>
</g>
<path d="M231.513 218.43L269.302 166.991L247.845 227.842L231.513 218.43Z" fill="white"/>
<path d="M266.748 166.858L269.364 164.235L264.845 225.306L257.508 219.28L266.748 166.858Z" fill="white"/>
</g>
<g clip-path="url(#clip2)">
<path d="M421.657 156.552C420.445 156.552 419.232 156.211 418.147 155.56C416.712 154.693 413.457 151.998 414.064 145.215C414.287 142.613 415.085 138.401 416.361 134.87C417.924 130.472 419.743 128.242 421.753 128.242C426.443 128.242 428.963 140.476 429.378 144.906C429.984 151.906 426.666 154.662 425.198 155.56C424.082 156.211 422.869 156.552 421.657 156.552ZM421.785 129.481C418.881 129.481 415.946 138.959 415.372 145.339C414.829 151.41 417.605 153.795 418.849 154.507C420.636 155.591 422.774 155.591 424.56 154.507C425.805 153.764 428.676 151.317 428.102 145.029C427.559 138.835 424.752 129.481 421.785 129.481Z" fill="#D06060"/>
</g>
<g clip-path="url(#clip3)">
<path d="M399.498 138.641L399.564 110.046H401.684L401.617 138.641H399.498Z" fill="white"/>
<path d="M398.75 93.0467L398.694 113.896L402.437 113.905L402.493 93.0563L398.75 93.0467Z" fill="#D06060"/>
<path d="M400.591 149.808C404.579 149.808 407.812 145.285 407.812 139.706C407.812 134.127 404.579 129.604 400.591 129.604C396.603 129.604 393.37 134.127 393.37 139.706C393.37 145.285 396.603 149.808 400.591 149.808Z" fill="#D06060"/>
<path d="M400.485 93.2648C399.99 93.2648 399.419 92.9744 399.038 92.5225C398.658 92.0707 398.429 91.4252 398.429 90.812V90.5861C398.429 89.9729 398.62 89.392 399 88.8756C399.381 88.4238 399.914 88.1656 400.523 88.1333C401.018 88.101 401.627 88.3915 402.046 88.8756C402.426 89.3274 402.655 89.9729 402.655 90.5861V90.8443C402.655 91.4575 402.464 92.0384 402.084 92.5548C401.741 93.0066 401.208 93.2648 400.599 93.2971C400.523 93.2648 400.523 93.2648 400.485 93.2648ZM400.599 88.456H400.561C400.256 88.456 399.724 88.5851 399.381 89.037C399.038 89.4888 398.848 90.0052 398.848 90.5538V90.812C398.848 91.3607 399.038 91.9416 399.381 92.3289C399.685 92.7162 400.18 92.9421 400.561 92.9421C400.866 92.9421 401.398 92.813 401.741 92.3612C402.084 91.9093 402.274 91.3929 402.274 90.8443V90.5861C402.274 90.0374 402.084 89.4565 401.741 89.0692C401.437 88.6819 400.98 88.456 400.599 88.456Z" fill="#D06060"/>
</g>
<g clip-path="url(#clip4)">
<path d="M477.948 85.2377H385.134C384.56 85.2377 384.088 84.6836 384.088 84.009V83.5754C384.088 82.9008 384.56 82.3467 385.134 82.3467H477.948C478.522 82.3467 478.994 82.9008 478.994 83.5754V84.009C478.994 84.6836 478.522 85.2377 477.948 85.2377Z" fill="#D06060"/>
</g>
<g clip-path="url(#clip5)">
<path d="M405.875 84.2752H404.242C401.265 84.2752 398.869 82.0528 398.869 79.2931V72.1619C398.869 70.4524 399.922 66.4716 401.555 64.1271C402.108 63.3212 402.424 62.4176 402.424 61.4652V57.7775C402.424 57.5821 402.609 57.4111 402.819 57.4111H407.297C407.508 57.4111 407.692 57.5821 407.692 57.7775V61.5384C407.692 62.442 407.982 63.3212 408.508 64.0783C410.194 66.3984 411.248 70.428 411.248 72.1619V79.2931C411.248 82.0528 408.851 84.2752 405.875 84.2752ZM403.214 58.1438V61.4652C403.214 62.5397 402.872 63.5899 402.214 64.5179C400.66 66.7403 399.659 70.5257 399.659 72.1619V79.2931C399.659 81.6376 401.713 83.5425 404.242 83.5425H405.875C408.403 83.5425 410.457 81.6376 410.457 79.2931V72.1619C410.457 70.5501 409.43 66.667 407.85 64.4935C407.218 63.6143 406.902 62.5886 406.902 61.5384V58.1438H403.214Z" fill="#D06060"/>
<path d="M407.297 57.0448H402.82C402.451 57.0448 402.161 56.7762 402.161 56.4343C402.161 56.0924 402.451 55.8237 402.82 55.8237H407.297C407.666 55.8237 407.956 56.0924 407.956 56.4343C407.956 56.7762 407.666 57.0448 407.297 57.0448Z" fill="#D06060"/>
<path d="M407.297 55.3353H402.82C402.451 55.3353 402.161 55.0667 402.161 54.7248C402.161 54.3829 402.451 54.1143 402.82 54.1143H407.297C407.666 54.1143 407.956 54.3829 407.956 54.7248C407.956 55.0667 407.666 55.3353 407.297 55.3353Z" fill="#D06060"/>
<path d="M404.927 81.9551C404.558 81.9551 404.268 81.6864 404.268 81.3445V58.1437C404.268 57.8018 404.558 57.5332 404.927 57.5332C405.295 57.5332 405.585 57.8018 405.585 58.1437V81.3445C405.585 81.6864 405.295 81.9551 404.927 81.9551Z" fill="#D06060"/>
<path d="M404.927 54.8467C404.558 54.8467 404.268 54.5781 404.268 54.2361V50.8171C404.268 50.4752 404.558 50.2065 404.927 50.2065C405.295 50.2065 405.585 50.4752 405.585 50.8171V54.2361C405.585 54.5781 405.295 54.8467 404.927 54.8467Z" fill="#D06060"/>
<path d="M404.927 51.4276C404.769 51.4276 404.585 51.3788 404.453 51.2567C404.19 51.0125 404.19 50.6217 404.453 50.4019L406.165 48.8145C406.428 48.5703 406.85 48.5703 407.087 48.8145C407.324 49.0587 407.35 49.4495 407.087 49.6693L405.375 51.2567C405.269 51.3788 405.085 51.4276 404.927 51.4276Z" fill="#D06060"/>
<path d="M410.976 72.675L399.388 72.4307C399.309 72.4307 399.256 72.3819 399.256 72.3086C399.256 72.2354 399.309 72.1865 399.388 72.1865L410.976 72.4307C411.055 72.4307 411.108 72.4796 411.108 72.5529C411.108 72.6261 411.055 72.675 410.976 72.675Z" fill="#D06060"/>
</g>
</g>
<defs>
<clipPath id="clip0">
<rect width="461.878" height="165.304" fill="white" transform="translate(99.6689 63.2041)"/>
</clipPath>
<clipPath id="clip1">
<rect width="156.204" height="162.572" fill="white" transform="translate(224.324 69.6445)"/>
</clipPath>
<clipPath id="clip2">
<rect width="15.4737" height="68.4208" fill="white" transform="translate(414 88.1309)"/>
</clipPath>
<clipPath id="clip3">
<rect width="14.4421" height="61.6751" fill="white" transform="translate(393.37 88.1328)"/>
</clipPath>
<clipPath id="clip4">
<rect width="94.9055" height="2.891" fill="white" transform="translate(384.088 82.3467)"/>
</clipPath>
<clipPath id="clip5">
<rect width="12.379" height="35.6559" fill="white" transform="translate(398.869 48.6191)"/>
</clipPath>
</defs>
</svg>
