<svg width="417" height="220" viewBox="0 0 416 220" fill="none" xmlns="http://www.w3.org/2000/svg">
<mask id="mask0" mask-type="alpha" maskUnits="userSpaceOnUse" x="0" y="0" width="416" height="220">
<path d="M0.5 6C0.5 2.96243 2.96243 0.5 6 0.5H410C413.038 0.5 415.5 2.96243 415.5 6V219.022H0.5V6Z" fill="white" stroke="#F2F2F2"/>
</mask>
<g mask="url(#mask0)">
<rect width="425.019" height="221.809" fill="#FFF4F2"/>
<path d="M34.8179 99.3081H31.0034V85.1987H34.8179V99.3081ZM32.9175 78.2534C33.3732 78.2534 33.7834 78.3628 34.1479 78.5815C34.5125 78.7912 34.7996 79.0783 35.0093 79.4429C35.2189 79.8075 35.3237 80.2131 35.3237 80.6597C35.3237 81.1063 35.2189 81.5119 35.0093 81.8765C34.7996 82.241 34.5125 82.5327 34.1479 82.7515C33.7834 82.9611 33.3732 83.0659 32.9175 83.0659C32.4618 83.0659 32.0516 82.9611 31.687 82.7515C31.3224 82.5327 31.0353 82.241 30.8257 81.8765C30.616 81.5119 30.5112 81.1063 30.5112 80.6597C30.5112 80.2131 30.616 79.8075 30.8257 79.4429C31.0353 79.0783 31.3224 78.7912 31.687 78.5815C32.0516 78.3628 32.4618 78.2534 32.9175 78.2534ZM38.8921 78.8687H54.7651V82.7925H42.8979V87.0718H49.4741V90.9956H42.8979V99.3081H38.8921V78.8687ZM60.603 84.8843C61.9976 84.8843 63.2554 85.2124 64.3765 85.8687C65.4976 86.5158 66.3771 87.4045 67.0151 88.5347C67.6532 89.6558 67.9722 90.8953 67.9722 92.2534C67.9722 93.6115 67.6532 94.8556 67.0151 95.9858C66.3771 97.1069 65.4976 97.9956 64.3765 98.6519C63.2554 99.299 61.9976 99.6226 60.603 99.6226C59.2085 99.6226 57.9507 99.299 56.8296 98.6519C55.7176 97.9956 54.8426 97.1069 54.2046 95.9858C53.5666 94.8556 53.2476 93.6115 53.2476 92.2534C53.2476 90.8953 53.5666 89.6558 54.2046 88.5347C54.8426 87.4045 55.7176 86.5158 56.8296 85.8687C57.9507 85.2124 59.2085 84.8843 60.603 84.8843ZM60.603 95.8901C61.2866 95.8901 61.8973 95.7306 62.4351 95.4116C62.9728 95.0926 63.3921 94.6551 63.6929 94.0991C64.0028 93.5431 64.1577 92.9279 64.1577 92.2534C64.1577 91.5789 64.0028 90.9637 63.6929 90.4077C63.3921 89.8517 62.9728 89.4142 62.4351 89.0952C61.8973 88.7762 61.2866 88.6167 60.603 88.6167C59.9285 88.6167 59.3179 88.7762 58.771 89.0952C58.2332 89.4142 57.8094 89.8517 57.4995 90.4077C57.1987 90.9637 57.0483 91.5789 57.0483 92.2534C57.0483 92.9279 57.1987 93.5431 57.4995 94.0991C57.8094 94.6551 58.2332 95.0926 58.771 95.4116C59.3179 95.7306 59.9285 95.8901 60.603 95.8901ZM77.3101 84.8843C78.7046 84.8843 79.9624 85.2124 81.0835 85.8687C82.2046 86.5158 83.0841 87.4045 83.7222 88.5347C84.3602 89.6558 84.6792 90.8953 84.6792 92.2534C84.6792 93.6115 84.3602 94.8556 83.7222 95.9858C83.0841 97.1069 82.2046 97.9956 81.0835 98.6519C79.9624 99.299 78.7046 99.6226 77.3101 99.6226C75.9155 99.6226 74.6577 99.299 73.5366 98.6519C72.4246 97.9956 71.5496 97.1069 70.9116 95.9858C70.2736 94.8556 69.9546 93.6115 69.9546 92.2534C69.9546 90.8953 70.2736 89.6558 70.9116 88.5347C71.5496 87.4045 72.4246 86.5158 73.5366 85.8687C74.6577 85.2124 75.9155 84.8843 77.3101 84.8843ZM77.3101 95.8901C77.9937 95.8901 78.6043 95.7306 79.1421 95.4116C79.6799 95.0926 80.0991 94.6551 80.3999 94.0991C80.7098 93.5431 80.8647 92.9279 80.8647 92.2534C80.8647 91.5789 80.7098 90.9637 80.3999 90.4077C80.0991 89.8517 79.6799 89.4142 79.1421 89.0952C78.6043 88.7762 77.9937 88.6167 77.3101 88.6167C76.6356 88.6167 76.0249 88.7762 75.478 89.0952C74.9403 89.4142 74.5164 89.8517 74.2065 90.4077C73.9058 90.9637 73.7554 91.5789 73.7554 92.2534C73.7554 92.9279 73.9058 93.5431 74.2065 94.0991C74.5164 94.6551 74.9403 95.0926 75.478 95.4116C76.0249 95.7306 76.6356 95.8901 77.3101 95.8901ZM101.25 77.9663V99.3081H97.4897V98.3374C96.9793 98.7476 96.396 99.0666 95.7397 99.2944C95.0926 99.5132 94.3908 99.6226 93.6343 99.6226C92.3035 99.6226 91.105 99.299 90.0386 98.6519C88.9813 97.9956 88.1519 97.1069 87.5503 95.9858C86.9578 94.8647 86.6616 93.6297 86.6616 92.2808C86.6616 90.9045 86.9578 89.6512 87.5503 88.521C88.1519 87.3908 88.9813 86.5021 90.0386 85.855C91.0959 85.2078 92.2944 84.8843 93.6343 84.8843C94.3634 84.8843 95.0516 84.9937 95.6987 85.2124C96.355 85.422 96.9338 85.7228 97.4351 86.1147V77.9663H101.25ZM97.5444 92.2808C97.5444 91.5789 97.394 90.95 97.0933 90.394C96.7925 89.8289 96.3687 89.3869 95.8218 89.0679C95.284 88.7489 94.6642 88.5894 93.9624 88.5894C93.297 88.5894 92.6955 88.7489 92.1577 89.0679C91.6291 89.3869 91.2144 89.8289 90.9136 90.394C90.6128 90.9591 90.4624 91.5881 90.4624 92.2808C90.4624 92.9552 90.6128 93.5705 90.9136 94.1265C91.2144 94.6825 91.6291 95.12 92.1577 95.439C92.6955 95.758 93.297 95.9175 93.9624 95.9175C94.6551 95.9175 95.2749 95.758 95.8218 95.439C96.3687 95.12 96.7925 94.6825 97.0933 94.1265C97.394 93.5705 97.5444 92.9552 97.5444 92.2808ZM32.8062 113.269H60.0171V119.996H39.6265V127.332H50.9468V134.058H39.6265V141.582H60.0171V148.308H32.8062V113.269ZM87.8608 133.191V148.308H81.3452V134.433C81.3452 133.605 81.1655 132.847 80.8062 132.16C80.4468 131.472 79.9233 130.933 79.2358 130.542C78.564 130.136 77.7749 129.933 76.8687 129.933C75.978 129.933 75.189 130.136 74.5015 130.542C73.8296 130.933 73.3062 131.472 72.9312 132.16C72.5562 132.847 72.3687 133.605 72.3687 134.433V148.308H65.8296V124.121H72.2749V125.644C73.103 124.972 74.0249 124.464 75.0405 124.121C76.0562 123.761 77.1499 123.582 78.3218 123.582C80.1343 123.582 81.7671 124.003 83.2202 124.847C84.6733 125.675 85.8062 126.824 86.6187 128.292C87.4468 129.746 87.8608 131.378 87.8608 133.191ZM101.361 124.121H108.978V130.308H101.361V139.285C101.361 140.144 101.611 140.832 102.111 141.347C102.626 141.863 103.314 142.121 104.173 142.121H108.978V148.308H102.837C101.275 148.308 99.8921 147.988 98.689 147.347C97.4858 146.691 96.5483 145.769 95.8765 144.582C95.2046 143.394 94.8687 142.027 94.8687 140.48V130.308H91.4233V126.957L97.7515 119.128H101.361V124.121ZM128.853 124.121V130.542H125.314C124.376 130.542 123.533 130.769 122.783 131.222C122.033 131.66 121.447 132.269 121.025 133.05C120.619 133.816 120.416 134.675 120.416 135.628V148.308H113.876V124.121H120.275V126.488C120.9 125.66 121.712 125.058 122.712 124.683C123.728 124.308 124.83 124.121 126.017 124.121H128.853ZM155.22 138.699H137.9C138.322 139.933 139.064 140.917 140.126 141.652C141.189 142.371 142.431 142.73 143.853 142.73C145.041 142.73 146.087 142.464 146.994 141.933C147.916 141.402 148.658 140.675 149.22 139.753L154.494 142.964C153.416 144.792 151.939 146.23 150.064 147.277C148.189 148.324 146.087 148.847 143.759 148.847C141.369 148.847 139.22 148.3 137.314 147.207C135.408 146.097 133.916 144.582 132.837 142.66C131.775 140.738 131.244 138.605 131.244 136.261C131.244 133.886 131.759 131.738 132.791 129.816C133.822 127.878 135.259 126.355 137.103 125.246C138.947 124.136 141.041 123.582 143.384 123.582C145.728 123.582 147.814 124.128 149.642 125.222C151.486 126.316 152.916 127.824 153.931 129.746C154.962 131.652 155.478 133.792 155.478 136.167C155.478 136.996 155.392 137.839 155.22 138.699ZM137.783 133.707H148.986C148.658 132.41 148.001 131.41 147.017 130.707C146.033 129.988 144.837 129.628 143.431 129.628C141.962 129.628 140.736 129.98 139.751 130.683C138.767 131.386 138.111 132.394 137.783 133.707ZM182.9 124.121V147.582C182.9 149.753 182.392 151.707 181.376 153.441C180.376 155.175 178.97 156.535 177.158 157.519C175.345 158.519 173.275 159.019 170.947 159.019C169.134 159.019 167.462 158.699 165.931 158.058C164.416 157.417 163.119 156.511 162.041 155.339C160.962 154.183 160.181 152.839 159.697 151.308L165.697 149.035C166.056 150.191 166.689 151.089 167.595 151.73C168.501 152.386 169.619 152.714 170.947 152.714C172.025 152.714 172.97 152.496 173.783 152.058C174.611 151.621 175.244 151.003 175.681 150.207C176.134 149.41 176.361 148.488 176.361 147.441V145.472C175.548 146.128 174.611 146.628 173.548 146.972C172.501 147.316 171.376 147.488 170.173 147.488C168.017 147.488 166.064 146.964 164.314 145.917C162.58 144.871 161.22 143.441 160.236 141.628C159.251 139.8 158.759 137.785 158.759 135.582C158.759 133.363 159.251 131.339 160.236 129.511C161.22 127.683 162.572 126.238 164.291 125.175C166.025 124.113 167.97 123.582 170.126 123.582C171.314 123.582 172.455 123.777 173.548 124.167C174.642 124.558 175.611 125.097 176.455 125.785V124.121H182.9ZM176.548 135.628C176.548 134.566 176.306 133.605 175.822 132.746C175.337 131.871 174.666 131.183 173.806 130.683C172.947 130.183 171.994 129.933 170.947 129.933C169.884 129.933 168.916 130.183 168.041 130.683C167.181 131.183 166.501 131.871 166.001 132.746C165.517 133.605 165.275 134.566 165.275 135.628C165.275 136.66 165.517 137.605 166.001 138.464C166.501 139.308 167.181 139.98 168.041 140.48C168.916 140.964 169.884 141.207 170.947 141.207C171.994 141.207 172.947 140.964 173.806 140.48C174.666 139.98 175.337 139.308 175.822 138.464C176.306 137.605 176.548 136.66 176.548 135.628ZM208.986 133.003V148.308H202.587V146.832C201.822 147.519 200.947 148.027 199.962 148.355C198.978 148.683 197.822 148.847 196.494 148.847C194.853 148.847 193.392 148.527 192.111 147.886C190.845 147.246 189.861 146.355 189.158 145.214C188.455 144.058 188.103 142.753 188.103 141.3C188.103 138.972 188.869 137.199 190.4 135.98C191.931 134.746 193.962 134.027 196.494 133.824L202.587 133.285V132.863C202.587 132.269 202.416 131.73 202.072 131.246C201.728 130.761 201.259 130.378 200.666 130.097C200.087 129.816 199.439 129.675 198.72 129.675C197.751 129.675 196.916 129.91 196.212 130.378C195.525 130.832 195.095 131.433 194.923 132.183H188.666C188.775 130.558 189.275 129.089 190.166 127.777C191.056 126.464 192.244 125.441 193.728 124.707C195.212 123.957 196.876 123.582 198.72 123.582C200.72 123.582 202.494 123.988 204.041 124.8C205.603 125.613 206.814 126.738 207.673 128.175C208.548 129.597 208.986 131.207 208.986 133.003ZM202.587 139.824V138.089L197.548 138.511C196.533 138.605 195.783 138.871 195.298 139.308C194.814 139.746 194.572 140.316 194.572 141.019C194.572 141.722 194.876 142.308 195.486 142.777C196.095 143.23 196.931 143.457 197.994 143.457C199.416 143.457 200.533 143.136 201.345 142.496C202.173 141.839 202.587 140.949 202.587 139.824Z" fill="#EF5753"/>
<path d="M315.664 -80.0341C498.911 -147.103 668.854 -68.4952 730.017 -7.44506C791.18 53.6051 757.764 184.014 634.615 198.73C511.466 213.446 392.01 220.805 321.405 198.73C250.799 176.656 132.416 -12.9657 315.664 -80.0341Z" fill="#FFC4C0"/>
<g clip-path="url(#clip0)">
<path d="M394.414 217.236H279.753C276.549 217.236 273.951 214.899 273.951 212.016V73.8204C273.951 70.9381 276.549 68.6011 279.753 68.6011H394.414C397.618 68.6011 400.216 70.9381 400.216 73.8204V212.094C400.216 214.899 397.618 217.236 394.414 217.236Z" fill="#FFF4F2"/>
</g>
<path d="M281.377 77.6216H333.529V217.097H281.377V77.6216Z" fill="#FF9595"/>
<path d="M338.212 77.748H390.071V217.236H338.212V77.748Z" fill="#FF9595"/>
<path d="M385.133 225.525C358.245 225.525 362.49 203.04 365.792 172.767H401.624L385.133 225.525Z" fill="#F3DCD8"/>
<path d="M288.15 102.07C287.166 97.0391 282.527 88.8202 278.239 88.0408C272.967 87.0489 267.976 90.5206 266.922 95.7638V95.8346C266.43 98.5979 267.063 101.361 268.609 103.487C269.382 104.549 269.382 105.967 268.75 107.1L260.455 121.129C259.612 123.538 265.516 123.042 267.906 124.813C267.906 124.813 270.929 127.506 276.13 125.664C277.184 125.309 275.849 128.639 277.044 127.86C279.434 126.23 285.268 136.292 284.565 133.457L281.824 109.934C281.683 108.73 282.456 107.596 283.651 107.384C284.565 107.171 285.408 106.888 286.111 106.533C287.658 105.754 288.501 103.912 288.15 102.07Z" fill="#C599C6"/>
<path opacity="0.22" fill-rule="evenodd" clip-rule="evenodd" d="M273.796 101.281C273.984 101.203 274.198 101.294 274.274 101.485C275.123 103.59 276.93 104.704 278.575 105.294C279.394 105.588 280.161 105.746 280.722 105.831C281.003 105.873 281.231 105.897 281.388 105.911C281.467 105.917 281.527 105.921 281.568 105.923L281.612 105.926L281.623 105.926L281.625 105.926C281.625 105.926 281.625 105.926 281.614 106.298M281.614 106.298C281.602 106.669 281.602 106.669 281.602 106.669L281.6 106.669L281.596 106.669L281.581 106.668L281.527 106.666C281.48 106.663 281.413 106.659 281.328 106.651C281.157 106.637 280.912 106.611 280.614 106.566C280.019 106.476 279.205 106.308 278.331 105.995C276.589 105.37 274.557 104.149 273.596 101.766C273.519 101.576 273.609 101.359 273.796 101.281" fill="#771212"/>
<path d="M282.056 97.5826C282.127 97.944 282.127 98.2331 282.198 98.5945C282.198 98.8114 282.411 99.0282 282.624 99.0282C282.837 99.0282 283.122 98.8114 283.051 98.5945C282.98 98.2331 282.98 97.944 282.909 97.5826C282.909 97.3658 282.695 97.1489 282.482 97.1489C282.269 97.1489 282.056 97.3658 282.056 97.5826Z" fill="#771212"/>
<path d="M284.684 97.0033C284.755 97.437 284.898 97.7984 284.969 98.232C285.111 98.8103 285.964 98.5212 285.822 98.0152C285.751 97.5815 285.608 97.2201 285.537 96.7865C285.395 96.2082 284.542 96.4251 284.684 97.0033Z" fill="#771212"/>
<path d="M268.759 104.228L272.103 100.848L268.243 96.7935L266.238 99.7671L268.759 104.228Z" fill="#771212"/>
<path d="M265.392 99.7669L284.285 94.4919C285.038 94.2721 285.415 93.5394 285.264 92.8068C285.264 92.7335 285.264 92.7335 285.189 92.6603L283.683 88.9238C283.232 87.9713 282.027 86.3595 281.049 85.9199C279.618 85.2606 277.435 84.6012 275.328 85.0408C271.715 85.7001 265.617 87.605 263.51 91.0484C262.531 92.6603 265.392 99.7669 265.392 99.7669Z" fill="#FF9595"/>
<path d="M265.316 97.7912L258.733 104.83C258.662 104.902 258.662 104.974 258.662 105.046L257.246 111.941C257.175 112.157 257.317 112.372 257.529 112.444C257.671 112.444 257.812 112.444 257.883 112.3L265.812 104.112C265.882 104.04 265.953 103.968 265.953 103.825L266.024 98.0067C266.024 97.7912 265.882 97.5757 265.599 97.5757C265.458 97.6475 265.387 97.7193 265.316 97.7912Z" fill="#FF9595"/>
<path d="M269.17 97.8351C269.17 97.8351 259.226 94.7268 257.086 93.8791C255.498 93.2434 251.009 97.8351 248.8 100.166C248.593 100.449 248.593 100.802 248.8 101.085C248.938 101.226 249.145 101.296 249.352 101.226L269.17 97.8351Z" fill="#FF9595"/>
<path d="M269.477 94.0304C271.204 93.3369 273.425 94.4157 274.494 96.3421C275.564 98.2685 274.988 100.349 273.261 101.043C271.533 101.736 269.312 100.657 268.243 98.7308C267.174 96.8044 267.75 94.7239 269.477 94.0304Z" fill="#C599C6"/>
<path fill-rule="evenodd" clip-rule="evenodd" d="M282.786 101.766C282.823 101.419 283.275 101.183 283.575 101.215L283.33 101.824L283.264 102.452C282.964 102.42 282.75 102.113 282.786 101.766ZM283.33 101.824L283.264 102.452L286.515 102.802C286.815 102.834 287.088 102.579 287.124 102.232C287.16 101.885 286.946 101.577 286.646 101.545L283.575 101.215L283.33 101.824Z" fill="#771212"/>
<path d="M239.539 166.592C239.539 166.592 237.267 198.19 239.539 209.793C241.811 221.396 277.951 227.399 277.951 227.399L264.652 168.222L239.539 166.592Z" fill="#D06060"/>
<path d="M293.506 165.506C282.499 163.822 265.133 146.379 261.606 135.838C260.484 132.414 260.912 128.991 262.889 126.166C264.973 123.231 268.392 121.384 271.866 121.384C274.377 121.384 276.835 122.362 278.865 124.155C283.514 128.23 288.857 135.349 295.59 141.543C300.933 146.434 305.368 144.314 305.849 141.271C306.918 134.371 309.75 123.286 316.963 120.351C316.963 120.351 319.635 116.548 324.444 123.068C324.444 123.068 323.375 131.219 319.1 129.589C319.154 129.643 321.505 169.744 293.506 165.506Z" fill="#A17CA2"/>
<path d="M311.031 128.827C312.26 127.903 318.672 125.186 319.848 124.969C320.542 124.914 321.183 124.914 321.878 124.914C322.412 125.023 322.893 125.132 323.428 125.295C323.855 125.403 324.229 125.675 324.55 125.947C324.87 126.273 324.87 126.707 325.138 127.033C325.405 127.359 325.779 127.631 326.206 127.468C326.473 127.359 326.687 127.196 326.794 126.925C327.008 127.088 327.221 127.088 327.435 127.088C327.756 127.033 328.023 126.762 328.076 126.436C328.45 126.653 328.985 126.816 329.305 126.49C329.466 126.273 329.572 126.001 329.572 125.675C330.321 126.164 330.908 126.218 331.175 125.186C331.389 124.479 330.481 122.36 330.214 122.034C328.985 120.241 326.046 117.687 323.909 117.905C319.527 118.339 313.649 119.861 311.031 128.827ZM325.832 126.599C325.832 126.599 325.832 126.544 325.832 126.599C325.832 126.544 325.832 126.599 325.832 126.599ZM325.886 126.544C325.886 126.544 325.886 126.653 325.886 126.544V126.544Z" fill="#A27CA2"/>
<path d="M297.835 169.796C297.835 169.796 299.545 155.831 296.286 138.009C292.121 130.12 288.417 125.585 279.971 117.797C254.65 103.546 245.326 128.685 242.255 149.322C236.217 170.622 251.073 160.287 246.478 167.622C241.883 175.012 296.446 177.186 297.835 169.796Z" fill="#E4002B"/>
<path d="M289.766 166.591C278.759 164.906 261.393 147.464 257.866 136.922C256.744 133.499 257.172 130.076 259.149 127.25C261.233 124.316 264.652 122.469 268.125 122.469C270.637 122.469 273.095 123.447 275.125 125.24C279.774 129.315 285.117 136.433 291.85 142.628C297.193 147.518 307.378 147.028 307.859 143.985C308.928 137.084 310.663 131.662 310.975 128.818C312.221 122.815 315.894 117.632 320.703 124.153C320.703 124.153 319.635 132.304 315.36 130.674C315.413 130.728 317.765 170.829 289.766 166.591Z" fill="#C599C6"/>
<path d="M316.751 127.359L317.125 125.186L329.147 123.284L330.536 124.859C331.124 125.512 331.231 126.435 330.804 127.25L329.842 128.989L329.254 130.293L333.155 133.499L334.758 138.118L339.373 156.72L334.758 161.782C334.223 161.999 329.995 163.955 329.407 164.118L321.729 166.454L315.949 135.455L317.178 128.12L316.751 127.359Z" fill="#D06060"/>
<path d="M313.063 155.996C312.743 155.779 311.3 147.465 311.3 147.465C311.3 147.465 309.27 137.086 309.804 135.728C310.285 134.641 314.506 128.066 316.162 126.056C316.536 125.621 317.017 125.349 317.552 125.241C318.193 125.132 318.994 125.132 319.315 125.73L320.491 128.284C320.918 129.153 320.597 130.24 319.796 130.783L318.514 131.653C317.819 132.087 317.498 132.902 317.659 133.718V133.772L319.208 135.13C319.582 135.456 319.849 135.945 319.903 136.434L322.895 157.246L322.112 166.455L313.063 164.508V155.996Z" fill="#FFC4C0"/>
<path d="M254.923 125.96C252.785 153.672 272.987 158.006 272.987 158.006C272.987 158.006 272.934 145.888 290.727 139.966C290.727 139.966 279.666 130.348 278.063 117.687" fill="#E4002B"/>
<path opacity="0.32" fill-rule="evenodd" clip-rule="evenodd" d="M278.796 120.738C278.959 120.683 279.135 120.772 279.19 120.938C280.613 125.273 283.548 129.959 286.142 133.575C287.436 135.38 288.642 136.912 289.523 137.992C289.964 138.533 290.323 138.96 290.572 139.252C290.697 139.398 290.794 139.51 290.86 139.585C290.892 139.623 290.917 139.651 290.934 139.67L290.953 139.692L290.959 139.698C290.959 139.698 290.959 139.699 290.727 139.91C290.496 140.121 290.496 140.121 290.495 140.121L290.494 140.119L290.489 140.113L290.469 140.091C290.452 140.071 290.426 140.042 290.393 140.003C290.326 139.926 290.227 139.813 290.101 139.665C289.849 139.37 289.487 138.939 289.043 138.395C288.155 137.307 286.942 135.764 285.638 133.947C283.034 130.318 280.053 125.568 278.599 121.138C278.544 120.972 278.632 120.793 278.796 120.738ZM252.12 129.498C252.286 129.452 252.457 129.551 252.503 129.719C255.747 141.7 260.913 148.684 265.249 152.669C267.418 154.663 269.382 155.91 270.8 156.657C271.509 157.03 272.082 157.279 272.475 157.433C272.671 157.511 272.823 157.564 272.924 157.599C272.975 157.616 273.013 157.628 273.038 157.635C273.05 157.639 273.059 157.642 273.065 157.644L273.071 157.646L273.072 157.646C273.072 157.646 273.072 157.646 273.072 157.646C273.238 157.693 273.334 157.868 273.288 158.036C273.241 158.204 273.069 158.301 272.903 158.254L272.988 157.95C272.903 158.254 272.904 158.254 272.903 158.254L272.902 158.254L272.899 158.253L272.889 158.25C272.881 158.248 272.87 158.244 272.855 158.24C272.826 158.231 272.783 158.217 272.728 158.198C272.617 158.161 272.456 158.104 272.249 158.022C271.837 157.86 271.243 157.602 270.513 157.218C269.052 156.448 267.043 155.171 264.83 153.138C260.403 149.068 255.176 141.978 251.902 129.887C251.856 129.718 251.954 129.545 252.12 129.498ZM290.936 140.145C290.808 140.261 290.611 140.251 290.495 140.121L290.727 139.91L290.959 139.698C291.074 139.828 291.064 140.028 290.936 140.145Z" fill="black"/>
<path d="M262.992 170.451C259.615 168.752 256.032 167.727 252.478 166.427C251.204 166.002 242.541 159.347 242.526 159.184C238.867 155.002 235.608 150.508 232.75 145.704C232.429 145.134 231.703 144.821 231.089 145.152C228.123 146.743 225.284 148.54 222.566 150.49C222.01 150.87 222.012 151.47 222.265 151.883C222.328 151.986 222.396 152.143 222.459 152.246C225.789 156.351 230.484 158.962 234.865 161.657C235.548 162.084 236.173 162.461 236.857 162.887C230.742 162.921 224.561 163.398 218.526 164.298C217.946 164.408 217.656 164.763 217.595 165.26C217.465 165.599 217.558 166.027 217.859 166.381C221.324 170.2 224.837 173.96 228.302 177.779C228.84 178.383 229.798 178.292 230.217 177.597C233.113 173.502 236.479 169.854 240.2 166.554C243.184 168.072 246.265 169.472 249.432 170.645C252.992 171.999 256.83 172.891 260.265 174.639C263.138 176.113 265.865 171.925 262.992 170.451Z" fill="white"/>
<path d="M252.897 166.591C239.967 160.451 253.432 224.733 253.432 224.733C253.432 224.733 254.821 236.632 291.903 227.993C310.605 223.646 304.727 211.148 304.727 211.148L299.972 165.559C300.025 165.559 276.942 178.002 252.897 166.591Z" fill="white"/>
<path d="M213.46 191.763L242.639 163.339L223.443 196.825L213.46 191.763Z" fill="white"/>
<path d="M230.021 204.301L240.967 161.002L244.092 199.82L230.021 204.301Z" fill="white"/>
<path d="M312.521 125.223C315.014 117.008 323.737 118.125 327.788 124.129C329.657 128.236 328.535 129.879 326.541 127.604L325.295 125.393C325.918 126.656 325.918 129.658 324.984 129.816C324.049 129.974 323.737 129.816 323.426 128.236C323.218 126.867 323.114 126.656 322.491 125.393L322.491 125.393C322.907 126.972 323.737 130.006 321.245 129.5C321.557 128.236 321.245 124.761 318.753 124.761C318.641 124.761 318.538 124.761 318.441 124.761L312.521 125.223Z" fill="#C599C6"/>
<path d="M415.125 199.946C413.353 204.954 409.735 208.715 413.353 218.349C413.353 230.01 387.843 233.082 384.588 230.01C378.919 212.106 379.945 179.12 379.945 179.12C383.17 166.246 390.847 170.307 390.847 170.307C390.847 170.307 407.851 158.858 413.353 161.449C424.382 175.513 415.125 199.946 415.125 199.946Z" fill="#FFF4F2"/>
<path d="M391.506 117.063C391.506 117.063 376.433 115.339 352.219 134.177C328.005 153.014 345.742 170.005 345.742 170.005L354.58 166.127C354.58 166.127 353.369 151.968 374.193 141.195L381.942 153.261L411.241 146.181C411.241 146.181 408.214 149.259 379.52 161.941C378.491 162.372 378.128 163.664 378.673 164.588C380.126 167.05 381.276 176.038 381.458 176.1C404.461 182.871 429.22 170.867 429.947 142.056C429.947 142.056 429.765 117.74 400.103 115.893L391.506 117.063Z" fill="#D06060"/>
<path d="M412.814 119.894C413.238 118.048 411.967 116.201 410.09 116.016C407.729 115.77 405.187 115.585 404.521 116.262C403.371 117.493 395.804 160.155 403.25 157.077C406.276 155.846 405.066 156.462 409.303 152.768C413.964 148.643 410.938 127.651 412.814 119.894Z" fill="#771212"/>
<path d="M369.893 169.636C370.075 169.574 370.317 169.513 370.438 169.389C377.218 164.095 380.79 165.511 380.85 165.511C381.577 165.819 382.424 165.511 382.727 164.772C383.03 164.034 382.727 163.233 382.061 162.864C381.577 162.618 376.855 160.648 368.743 167.05C368.138 167.543 368.017 168.466 368.501 169.082C368.864 169.574 369.409 169.759 369.893 169.636Z" fill="#BB5B52"/>
<path d="M356.637 168.526C356.334 169.573 355.245 170.557 354.518 171.358C353.61 172.404 352.823 173.574 351.855 174.559C351.612 174.805 351.612 175.236 351.794 174.497C351.673 174.99 351.612 175.421 351.249 175.852C350.523 176.837 349.191 176.96 348.162 176.344C347.193 175.729 346.649 174.436 346.77 173.328C346.891 172.158 347.678 171.419 348.404 170.557C349.857 168.895 352.097 171.481 350.704 173.081C350.583 173.205 350.462 173.328 350.341 173.451C350.099 173.759 349.857 173.636 349.554 173.143C349.191 173.389 348.828 173.636 348.465 173.882C348.707 173.574 348.888 172.835 349.191 172.404C349.736 171.727 350.281 171.05 350.886 170.373C351.431 169.696 351.976 169.08 352.52 168.403C352.763 168.095 353.005 167.787 353.247 167.479C353.429 167.233 353.61 166.741 353.429 167.295C354.034 165.325 357.242 166.433 356.637 168.526Z" fill="#BB5B52"/>
<path d="M356.457 168.774C356.154 169.821 355.125 170.683 354.459 171.483C353.611 172.468 352.824 173.576 351.977 174.499C351.735 174.746 351.795 175.115 351.916 174.438C351.795 174.93 351.735 175.3 351.432 175.731C350.706 176.654 349.495 176.777 348.526 176.223C347.558 175.669 347.073 174.438 347.195 173.391C347.316 172.283 348.042 171.606 348.708 170.806C350.04 169.205 352.219 171.668 350.887 173.207C350.766 173.33 350.645 173.453 350.524 173.576C350.342 173.884 350.04 173.761 349.737 173.33C349.374 173.576 349.071 173.822 348.708 174.007C348.95 173.699 349.132 173.022 349.434 172.591C349.919 171.914 350.463 171.298 351.008 170.683C351.553 170.067 352.037 169.451 352.582 168.836C352.824 168.528 353.006 168.282 353.248 167.974C353.43 167.789 353.551 167.235 353.43 167.789C353.975 165.758 357.001 166.804 356.457 168.774Z" fill="#BB5B52"/>
<path d="M370.541 189.032C372.539 174.997 374.173 163.669 378.108 153.512C378.411 152.711 377.866 151.85 377.019 151.727C367.938 150.865 354.862 143.527 341.242 137.863L339.547 143.233C338.263 156.836 339.668 157.821 339.547 167.301C339.547 168.902 340.152 170.441 341.242 171.611C346.327 176.843 361.4 187.678 368.907 190.079C369.633 190.325 370.42 189.833 370.541 189.032Z" fill="#E4002B"/>
<path d="M408.093 141.811L373.224 157.94L341.087 137.863L373.103 122.604C374.011 122.173 408.093 141.811 408.093 141.811Z" fill="#E4002B"/>
<path d="M385.694 163.171C389.023 165.203 385.633 168.527 384.544 170.682C383.575 172.528 381.154 172.282 380.246 170.559C379.217 168.65 380.246 167.234 381.457 165.818C382.062 165.141 383.273 165.326 383.817 165.941C384.483 166.68 384.302 167.665 383.696 168.342C383.575 168.465 383.394 168.835 383.273 168.835C383.273 168.896 383.212 168.896 383.212 168.896C383.091 168.712 382.97 168.589 382.728 168.527C382.425 168.589 382.122 168.65 381.88 168.712C381.335 168.958 381.578 169.512 381.638 168.835C381.638 168.589 381.699 168.281 381.699 168.035C381.699 167.173 373.95 166.988 373.768 166.065C373.103 163.171 382.365 161.14 385.694 163.171Z" fill="#BB5B52"/>
<path d="M373.528 157.692L408.033 141.686L404.159 172.22C403.917 173.882 402.887 175.36 401.314 176.037L369.896 189.704L373.528 157.692Z" fill="#771212"/>
<path fill-rule="evenodd" clip-rule="evenodd" d="M412.44 136.085C412.641 136.011 412.864 136.117 412.937 136.321C414.787 141.493 414.335 145.694 412.437 149.097C410.549 152.481 407.258 155.027 403.517 156.968C397.071 160.313 389.152 161.926 384.398 162.894C383.641 163.048 382.964 163.186 382.386 163.312C382.176 163.358 381.969 163.223 381.924 163.01C381.879 162.797 382.013 162.587 382.223 162.542C382.813 162.413 383.499 162.273 384.264 162.117C389.03 161.145 396.823 159.556 403.163 156.266C406.838 154.359 409.979 151.903 411.761 148.709C413.533 145.532 413.989 141.576 412.207 136.59C412.134 136.385 412.238 136.159 412.44 136.085Z" fill="#771212"/>
<path d="M383.213 112.138L382.002 106.597L386.119 99.7024L395.926 99.21L402.585 107.213L400.163 111.522L383.213 112.138Z" fill="#552546"/>
<path d="M386.844 120.879L387.813 109.737C387.813 109.737 385.331 108.998 384.847 104.627C384.423 100.256 390.84 98.0402 394.774 98.8405L397.741 101.611C397.741 101.611 398.528 101.98 399.557 103.027C400.586 104.073 401.554 106.72 398.951 108.382L401.252 119.094C401.615 120.079 401.433 121.187 400.767 121.987C398.528 124.758 392.898 130.175 387.389 123.28C386.905 122.665 386.663 121.741 386.844 120.879Z" fill="#FF9595"/>
<path d="M390.9 103.578C390.9 103.394 391.021 103.209 391.143 103.209C391.264 103.148 391.445 103.209 391.566 103.394C391.808 103.702 391.93 104.071 391.99 104.44C392.051 104.687 391.748 104.933 391.506 104.748C391.082 104.44 390.9 104.009 390.9 103.578Z" fill="#431845"/>
<path d="M388.964 103.702C389.085 103.518 389.206 103.456 389.327 103.518C389.388 103.518 389.509 103.579 389.63 103.641C389.872 103.887 390.175 104.318 390.114 104.749C390.114 104.934 389.993 105.057 389.811 105.057C389.63 105.057 389.448 104.934 389.327 104.81C389.145 104.564 388.843 104.072 388.964 103.702Z" fill="#431845"/>
<path d="M389.326 106.225C389.87 106.472 390.415 106.533 391.021 106.287C391.444 106.102 391.747 106.718 391.323 106.903C390.597 107.21 389.81 107.21 389.144 106.903C388.72 106.656 388.902 105.979 389.326 106.225Z" fill="#431845"/>
<path d="M380.125 113.8C380.307 114.662 381.094 115.278 382.002 115.216C388.721 114.97 395.441 114.601 402.1 113.492C404.46 113.123 406.155 110.845 405.611 108.383C405.247 106.721 404.642 105.059 404.097 103.458C402.16 98.41 395.985 95.3319 390.84 95.7013C383.818 96.3169 379.641 102.781 379.822 109.614C379.762 110.968 379.822 112.446 380.125 113.8ZM383.212 107.706C383.333 102.35 387.51 99.6412 392.474 100.626C395.32 101.18 397.559 103.15 398.77 105.859C399.254 106.844 398.528 107.89 397.499 108.013C393.08 108.321 388.721 108.568 384.302 108.814C383.697 108.752 383.212 108.26 383.212 107.706Z" fill="#E4002B"/>
<path d="M370.501 166.926L353.994 147.879L373.528 157.692V166.31L370.501 166.926Z" fill="#630F0F"/>
<path d="M382.002 163.234C382.002 163.234 397.742 161.387 407.427 154.616L409.849 170.006L404.401 176.162C404.401 176.162 388.661 181.087 382.002 174.315V163.234Z" fill="#D06060"/>
<path fill-rule="evenodd" clip-rule="evenodd" d="M349.572 164.068C352.306 165.172 355.56 162.897 356.697 160.381C357.517 158.581 356.489 157.193 355.141 156.667C352.157 155.466 349.018 158.077 348.017 160.354C347.209 162.122 348.262 163.52 349.572 164.068ZM364.073 163.37C362.937 165.887 359.682 168.162 356.949 167.058C355.639 166.51 354.586 165.112 355.393 163.344C356.395 161.067 359.523 158.414 362.492 159.646C363.827 160.204 364.869 161.561 364.073 163.37ZM347.887 173.022C350.213 174.186 352.806 174.212 355.273 173.128L354.893 175.721L358.577 170.142L354.048 168.264L354.926 170.325C352.839 171.41 349.836 171.517 347.926 170.406C345.965 169.275 345.074 166.844 345.261 164.688L345.111 164.629C344.18 167.811 344.974 171.593 347.887 173.022Z" fill="white"/>
<path d="M352.381 147.17C352.381 147.17 353.954 155.274 356.376 163.893C356.376 163.893 359.661 177.058 366.62 169.559L372.147 166.5L352.381 147.17Z" fill="#BF1816"/>
<path d="M364.736 173.66C367.278 164.496 377.208 162.801 382.032 162.921C382.032 162.921 385.914 163.637 385.914 169.364C385.914 175.092 383.797 175.45 383.797 175.45C378.502 173.66 376.384 177.955 374.619 177.955C373.208 177.955 372.149 176.762 371.796 176.166C368.69 171.297 371.678 169.125 373.561 168.648C370.737 169.221 369.09 172.228 368.619 173.66C365.513 177.669 364.736 175.33 364.736 173.66Z" fill="#FF9595"/>
<path fill-rule="evenodd" clip-rule="evenodd" d="M429.947 143.24C429.003 144.675 420.512 148.024 420.512 148.024L413.908 144.197V139.413L420.512 143.718L429.475 137.978C429.475 137.978 430.418 141.805 429.947 143.24Z" fill="#BCFF4F"/>
<path fill-rule="evenodd" clip-rule="evenodd" d="M428.531 152.991C427.588 154.426 419.569 156.819 419.569 156.819L410.606 151.851L412.965 148.207L419.569 152.513L429.475 147.546C429.475 147.546 429.003 151.556 428.531 152.991Z" fill="#BCFF4F"/>
</g>
<g clip-path="url(#clip1)">
<path d="M251.172 90.3242H202.031C200.658 90.3242 199.544 89.2815 199.544 87.9955V26.3389C199.544 25.0529 200.658 24.0103 202.031 24.0103H251.172C252.545 24.0103 253.658 25.0529 253.658 26.3389V88.0303C253.658 89.2815 252.545 90.3242 251.172 90.3242Z" fill="#FFF4F2"/>
<path d="M224.04 55.1864H204.703C204.183 55.1864 203.738 54.7693 203.738 54.2828V30.0233C203.738 29.5367 204.183 29.1196 204.703 29.1196H224.04C224.559 29.1196 225.005 29.5367 225.005 30.0233V54.2828C225.005 54.7693 224.559 55.1864 224.04 55.1864Z" fill="#FF9595"/>
<path d="M248.461 55.1864H229.161C228.642 55.1864 228.196 54.7693 228.196 54.2828V30.0233C228.196 29.5367 228.642 29.1196 229.161 29.1196H248.498C249.018 29.1196 249.463 29.5367 249.463 30.0233V54.2828C249.463 54.7693 249.018 55.1864 248.461 55.1864Z" fill="#FF9595"/>
<path d="M224.04 85.2499H204.703C204.183 85.2499 203.738 84.8328 203.738 84.3462V60.0868C203.738 59.6002 204.183 59.1831 204.703 59.1831H224.04C224.559 59.1831 225.005 59.6002 225.005 60.0868V84.3462C225.005 84.8328 224.559 85.2499 224.04 85.2499Z" fill="#FF9595"/>
<path d="M248.461 85.2499H229.161C228.642 85.2499 228.196 84.8328 228.196 84.3462V60.0868C228.196 59.6002 228.642 59.1831 229.161 59.1831H248.498C249.018 59.1831 249.463 59.6002 249.463 60.0868V84.3462C249.463 84.8328 249.018 85.2499 248.461 85.2499Z" fill="#FF9595"/>
</g>
<defs>
<clipPath id="clip0">
<rect width="126.266" height="148.635" fill="white" transform="translate(273.951 68.6011)"/>
</clipPath>
<clipPath id="clip1">
<rect width="54.1138" height="66.3139" fill="white" transform="translate(199.544 24.0103)"/>
</clipPath>
</defs>
</svg>
