<svg width="299" height="481" viewBox="0 0 299 481" fill="none" xmlns="http://www.w3.org/2000/svg">
<ellipse cx="141.5" cy="464" rx="139.5" ry="17" fill="#B71521"/>
<g clip-path="url(#clip0)">
<path fill-rule="evenodd" clip-rule="evenodd" d="M71.2916 250.613C71.9727 247.874 141.444 247.189 143.488 249.244C144.169 249.928 144.169 250.613 144.169 250.613C144.169 250.613 144.169 252.667 144.169 251.983C144.85 251.983 137.358 287.59 133.271 335.522C131.228 361.543 140.763 414.268 140.763 414.268C140.082 414.953 140.082 414.953 139.401 415.638C138.039 416.323 72.6538 421.116 71.2916 421.116C67.2051 421.116 65.1618 409.475 62.4374 365.651C56.9887 291.698 71.2916 251.983 71.2916 250.613Z" fill="#D797D9"/>
<path fill-rule="evenodd" clip-rule="evenodd" d="M13.622 464.946C25.8817 470.424 118.51 465.63 143.711 447.827C146.435 445.773 147.797 443.033 147.116 439.61C146.435 433.447 145.073 422.491 140.986 412.22C140.986 412.22 66.7473 425.23 67.4284 412.22C68.1095 412.22 0.681235 459.468 13.622 464.946Z" fill="#D07575"/>
<path fill-rule="evenodd" clip-rule="evenodd" d="M48.3575 345.799C63.3415 349.908 94.6718 356.755 134.856 357.44C134.856 357.44 177.765 293.758 192.068 180.774C192.068 180.774 202.966 182.829 163.462 152.7C123.959 122.571 75.6012 208.164 75.6012 208.164C75.6012 208.164 53.8062 265.684 40.1844 332.104C38.8222 338.267 42.2277 344.43 48.3575 345.799Z" fill="#771212"/>
<path fill-rule="evenodd" clip-rule="evenodd" d="M256.091 380.721C256.091 381.406 210.458 401.264 208.415 399.209C206.371 397.155 175.041 408.111 173.679 406.057C132.132 337.582 150.522 218.435 153.927 217.066C166.868 224.598 181.171 229.391 184.576 232.13C205.69 246.51 181.852 246.51 202.966 237.608C205.009 238.293 217.95 282.802 224.08 319.778C229.529 354.701 254.048 375.243 256.091 380.721Z" fill="#E3B6E4"/>
<path fill-rule="evenodd" clip-rule="evenodd" d="M175.041 293.757C175.722 296.496 174.36 299.235 174.36 301.974C174.36 305.398 175.041 308.137 173.679 311.561L172.998 312.246C172.317 312.93 172.998 312.93 172.317 312.93L171.636 313.615C170.955 314.3 170.955 314.3 170.273 314.3H169.592C168.911 314.3 168.911 314.3 168.23 314.3H167.549C166.187 314.3 165.506 313.615 165.506 312.93L164.825 312.246C162.781 310.191 162.781 306.768 162.781 304.029C162.781 303.344 162.781 302.659 162.781 301.29C162.781 301.29 162.1 300.605 161.419 299.92C160.057 297.181 161.419 293.757 164.144 291.018C164.825 290.334 165.506 289.649 165.506 289.649C166.187 288.964 166.187 288.279 166.868 287.595H167.549C168.911 286.91 169.592 286.91 169.592 286.91C170.273 286.91 171.636 287.595 171.636 287.595C172.317 288.279 172.998 288.964 172.998 288.964C173.679 289.649 172.998 288.964 173.679 290.334V291.703C174.36 292.388 174.36 292.388 175.041 293.757Z" fill="#E3B6E4"/>
<path fill-rule="evenodd" clip-rule="evenodd" d="M142.767 464.53C157.743 464.054 247.779 424.988 264.408 399.041C266.227 396.428 265.857 393.741 264.562 391.51C261.638 386.064 255.197 376.613 246.271 367.808C246.271 367.808 176.915 410.479 171.365 398.869C171.032 397.885 126.864 465.46 142.767 464.53Z" fill="#FF9595"/>
<path fill-rule="evenodd" clip-rule="evenodd" d="M229.528 341.006C199.56 360.864 171.635 377.983 160.738 377.298C160.738 377.298 165.506 393.047 170.273 399.21C170.273 399.21 189.344 408.796 245.875 366.342C245.875 367.027 237.702 356.755 229.528 341.006Z" fill="#BE8080"/>
<path fill-rule="evenodd" clip-rule="evenodd" d="M195.473 136.95H196.154H196.836H197.517H198.198H198.879H199.56L200.922 136.266H201.603H202.284H202.965H203.647H202.965H202.284H201.603H200.922L199.56 136.95H198.879H198.198H197.517H196.836H196.154H195.473Z" fill="#BD2F2F"/>
<path fill-rule="evenodd" clip-rule="evenodd" d="M173.856 33.0671C173.856 33.0671 206.113 38.6156 209.398 43.8567C210.902 45.4039 220.612 71.8443 223.6 76.4697C223.918 75.5543 173.856 33.0671 173.856 33.0671Z" fill="#FF9595"/>
<path fill-rule="evenodd" clip-rule="evenodd" d="M174.024 29.7714L184.057 55.304L202.814 67.4507C192.32 53.5539 181.826 39.6572 174.024 29.7714Z" fill="#FF9595"/>
<path fill-rule="evenodd" clip-rule="evenodd" d="M153.927 364.287C168.911 359.494 198.879 348.538 232.934 325.941C232.934 325.941 209.096 253.358 194.112 137.635C194.112 137.635 194.793 142.428 145.754 139.004C96.0342 135.581 106.932 207.479 106.932 207.479C106.932 207.479 115.786 294.443 140.305 357.44C142.349 362.918 148.478 366.341 153.927 364.287Z" fill="#D06060"/>
<path fill-rule="evenodd" clip-rule="evenodd" d="M131.451 94.4954C131.451 94.4954 131.451 88.3326 134.175 94.4954C136.219 101.343 95.3529 123.255 92.6285 140.374L134.856 141.743L195.474 139.689C195.474 139.689 203.647 54.7798 169.592 55.4646C169.592 55.4646 141.667 71.8986 132.132 57.5188C132.132 57.5188 96.7151 65.7358 94.6718 67.1053C92.6285 68.4748 92.6285 109.56 92.6285 109.56L128.045 95.8649L131.451 94.4954Z" fill="#EA1D2C"/>
<path fill-rule="evenodd" clip-rule="evenodd" d="M167.808 3.8547C169.851 3.8547 169.851 4.53945 172.575 5.2242C175.981 5.90896 177.343 5.22421 179.386 7.27846C183.473 11.387 184.154 19.604 181.43 25.082C179.386 29.8752 175.981 33.9837 172.575 38.0922C172.575 38.0922 171.894 46.3092 172.575 60.689C160.316 75.7535 122.174 70.2755 122.174 68.2213C122.174 67.5365 142.607 42.8855 144.651 39.4617C144.651 39.4617 144.651 39.4617 143.969 39.4617C137.84 38.0922 133.072 30.56 135.115 24.3972C137.159 16.865 143.288 12.0717 148.737 7.27846C150.78 5.22421 153.505 3.16995 156.229 2.4852C158.272 1.80045 160.997 3.8547 163.721 3.8547C164.402 3.16995 167.808 3.8547 167.808 3.8547Z" fill="#C599C6"/>
<path d="M141.026 20.1272C139.664 20.8835 140.345 28.4459 148.518 25.4209C149.199 24.6647 142.388 18.6147 141.026 20.1272Z" fill="#63206E"/>
<path fill-rule="evenodd" clip-rule="evenodd" d="M149.16 6.84758L177.084 35.6071C177.084 35.6071 185.257 33.5529 185.939 24.6511C185.939 24.6511 190.025 14.3798 178.447 5.47808C163.463 -6.16269 151.884 3.42383 149.16 6.84758Z" fill="#FF9595"/>
<path fill-rule="evenodd" clip-rule="evenodd" d="M144.55 39.8294C144.55 39.8294 157.333 43.1393 164.825 34.9223C164.825 34.9223 164.825 39.7156 170.273 37.6613L175.722 34.2375L177.084 35.607L173.679 37.6613V60.2581C173.679 60.2581 167.549 69.8446 149.159 71.2141C121.916 71.8988 123.278 67.7903 123.278 67.7903C121.283 67.7903 144.55 39.8294 144.55 39.8294Z" fill="#B080B2"/>
<path d="M154.844 23.0694C154.163 23.0694 154.163 23.0694 154.844 23.0694C154.163 23.0694 154.163 22.3846 154.163 22.3846C154.844 21.6999 154.844 20.3304 154.163 19.6456C153.482 18.9609 152.12 19.6456 150.758 21.0151H150.077V20.3304C152.801 16.9066 154.163 18.2761 154.844 18.2761C156.207 19.6456 156.207 21.6999 154.844 23.0694Z" fill="#63206E"/>
<path d="M148.762 19.849C148.081 19.8363 148.095 19.084 148.095 19.084C148.79 18.3444 148.818 16.84 148.151 16.075C147.484 15.31 146.108 16.0367 145.399 17.5285L144.718 17.5157L144.732 16.7635C147.512 13.8054 148.86 14.5831 149.541 14.5959C150.194 16.1132 150.166 17.6177 148.762 19.849Z" fill="#63206E"/>
<path fill-rule="evenodd" clip-rule="evenodd" d="M169.592 29.4445C173.679 26.0208 184.576 29.4445 173.679 35.6073L169.592 29.4445Z" fill="#C599C6"/>
<path d="M141.1 131.506C140.419 131.506 140.419 130.821 141.1 131.506C140.419 130.821 140.419 130.136 141.1 130.136C141.1 130.136 171.749 124.658 186.052 107.539H186.733V108.224C172.43 126.028 141.1 131.506 141.1 131.506Z" fill="#731B1B"/>
<path d="M139.624 84.9088C138.943 84.9088 138.943 84.9088 139.624 84.9088C138.943 84.2241 138.943 83.5393 139.624 83.5393C139.624 83.5393 153.246 78.0613 161.419 73.2681H162.101V73.9528C153.246 79.4308 139.624 84.9088 139.624 84.9088Z" fill="#7A1B1C"/>
<path fill-rule="evenodd" clip-rule="evenodd" d="M66.7474 416.328C66.7474 416.328 64.023 402.633 63.3419 384.83L136.219 381.406L141.668 412.22C140.987 412.22 82.4125 427.969 66.7474 416.328Z" fill="#AA5959"/>
<path fill-rule="evenodd" clip-rule="evenodd" d="M160.391 140.897C160.391 140.897 144.852 238.153 156.43 292.248C156.43 292.248 80.0962 288.556 42.6361 271.437C41.2739 270.752 40.5928 269.383 40.5928 267.329C43.3171 250.21 59.387 161.439 86.6307 140.897C86.6307 140.897 135.19 137.473 160.391 140.897Z" fill="white"/>
<path d="M48.3578 11.6411L53.1255 3.42407L98.0776 2.05457C101.483 2.05457 104.889 3.42407 106.932 6.84782L108.975 9.58682C111.018 13.0106 111.018 17.1191 108.975 19.8581L104.207 26.7056L100.802 32.1836L119.192 45.8786C121.235 47.2481 122.597 49.9871 123.278 52.0414L126.684 68.4754C126.684 68.4754 126.219 139.403 124.748 145.377C123.278 151.352 85.818 162.286 85.818 162.286L50.4011 170.503L40.1847 45.8786L49.72 15.7496L48.3578 11.6411Z" fill="#771212"/>
<path d="M12.9409 142.428C14.3031 136.266 14.9842 129.418 14.3031 122.571C13.622 111.615 12.9409 93.811 12.9409 93.811C12.9409 93.811 10.2165 48.6174 13.622 43.1394C16.3464 39.0309 38.1414 13.0104 46.3145 5.47814C47.6767 4.10864 50.401 3.42389 52.4443 2.73914C55.1687 2.73914 58.5742 3.42389 59.9363 6.16289L63.3418 17.8037C64.704 21.9122 62.6607 26.0207 58.5742 28.0749L53.1254 30.8139C49.7199 32.1834 47.6767 35.6072 48.3577 39.0309L54.4876 45.8784C55.8498 47.2479 56.5309 49.3022 56.5309 52.0412L57.212 136.95C57.212 140.374 56.5309 143.798 55.1687 147.222L49.7199 169.134L12.9409 142.428Z" fill="#E97171"/>
<path fill-rule="evenodd" clip-rule="evenodd" d="M27.9251 72.5836C30.6495 73.2684 46.9957 90.3871 46.9957 90.3871C48.3579 92.4414 72.8773 95.8651 82.4126 95.8651C119.192 94.4956 136.219 80.8006 139.624 83.5396C169.593 107.506 144.392 130.787 140.987 131.472C96.0344 141.743 80.3693 135.581 38.8226 119.831C34.0549 117.777 15.6654 119.147 10.8978 110.245C8.17338 104.767 6.13011 80.1159 14.9843 82.8549C17.0276 83.5396 29.9684 87.6481 28.6062 87.6481C31.3306 84.2244 20.4331 71.2141 27.9251 72.5836Z" fill="#C599C6"/>
<path fill-rule="evenodd" clip-rule="evenodd" d="M50.401 143.113C56.5308 147.906 40.1846 147.906 38.8224 152.014C38.1413 152.014 48.3577 168.448 49.7199 169.133C57.2119 173.926 25.8816 186.252 8.17319 166.394C-6.12977 148.591 1.36226 116.407 14.9841 122.57C13.6219 142.428 22.4762 140.374 24.5194 140.374C24.5194 140.374 47.6766 141.058 50.401 143.113Z" fill="#C599C6"/>
<path fill-rule="evenodd" clip-rule="evenodd" d="M158.953 174.411C159.962 174.437 160.76 175.28 160.734 176.293L158.906 176.245C160.734 176.293 160.734 176.293 160.734 176.293L160.734 176.294L160.733 176.309L160.732 176.374C160.731 176.434 160.73 176.525 160.729 176.646C160.728 176.888 160.729 177.249 160.737 177.713C160.753 178.642 160.8 179.982 160.92 181.611C161.161 184.874 161.697 189.262 162.869 193.798C165.249 203.005 170.052 212.131 179.585 214.605C180.282 214.786 180.808 215.359 180.93 216.071L179.128 216.381C178.712 217.996 178.67 217.996 178.67 217.996L177.788 217.91C177.816 218.07 177.436 217.333 177.49 217.644C177.5 217.702 177.511 217.764 177.522 217.828C166.736 214.419 161.699 203.892 159.329 194.72C158.085 189.907 157.524 185.288 157.272 181.882C157.146 180.176 157.097 178.766 157.08 177.778C157.071 177.283 157.071 176.894 157.072 176.626C157.073 176.492 157.074 176.388 157.075 176.316L157.077 176.232L157.077 176.209L157.077 176.199C157.077 176.199 157.077 176.198 158.906 176.245L157.077 176.198C157.104 175.185 157.943 174.385 158.953 174.411ZM177.522 217.828C177.898 217.947 178.28 218.057 178.67 218.158L179.128 216.381C180.93 216.071 180.93 216.071 180.93 216.071L180.971 216.309C180.998 216.467 181.039 216.703 181.093 217.012C181.201 217.631 181.36 218.543 181.568 219.717C181.984 222.064 182.592 225.457 183.363 229.635C184.904 237.993 187.094 249.492 189.688 262.059C194.884 287.24 201.67 316.545 208.081 333.508C208.439 334.455 207.964 335.515 207.02 335.874C206.076 336.234 205.02 335.757 204.662 334.809C198.132 317.534 191.296 287.951 186.106 262.803C183.506 250.205 181.311 238.679 179.766 230.303C178.994 226.115 178.384 222.714 177.967 220.359C177.778 219.293 177.629 218.441 177.522 217.828Z" fill="#771212"/>
<path d="M213.359 154.1C204.735 154.1 198.24 149.998 190.07 142.706C189.162 141.794 189.162 140.427 190.07 139.515C190.978 138.603 192.339 138.603 193.247 139.515C202.326 147.719 210.95 150.91 220.028 149.087C240.001 144.985 253.164 118.093 253.618 118.093C254.072 117.181 255.434 116.725 256.796 117.181C257.703 117.637 258.611 119.004 257.704 120.372C257.25 121.739 243.178 149.543 220.936 154.1C218.31 154.1 215.175 154.1 213.359 154.1Z" fill="white"/>
<path fill-rule="evenodd" clip-rule="evenodd" d="M192.411 82.0046C188.185 70.115 181.102 63.3857 173.08 60.2073L173.443 59.2809C181.757 62.5748 189.031 69.5369 193.343 81.6694C197.65 93.7855 199.004 111.052 195.533 134.994L194.553 134.85C198.012 110.997 196.643 93.9106 192.411 82.0046Z" fill="#731B1B"/>
<path d="M221.637 166.9C207.111 166.9 199.395 155.961 194.402 149.124C193.948 148.212 193.04 147.301 192.586 146.845C191.678 145.933 191.224 144.11 191.678 141.831C163.081 147.301 135.846 144.11 134.484 143.654C133.577 143.654 132.669 142.743 132.669 141.376C132.669 140.008 134.031 139.097 135.392 139.552C135.846 139.552 162.173 142.743 189.409 138.185C186.231 128.157 191.224 113.116 198.033 106.279C201.664 103.089 205.296 101.721 208.473 103.089C210.743 104 212.558 105.824 213.012 108.103C213.92 111.749 212.104 116.763 209.381 121.776C213.012 119.497 217.097 118.13 220.275 117.674C223.906 117.674 226.63 119.042 227.992 122.232C230.715 127.702 231.169 133.171 227.992 137.273C223.906 144.11 213.466 147.301 200.303 146.389C199.395 146.389 198.033 145.933 197.125 145.933C197.125 146.389 197.579 146.389 197.579 146.845C203.48 155.505 211.65 167.356 231.623 160.975C240.247 158.24 245.24 155.961 248.418 154.594C254.773 151.859 257.042 150.947 266.575 151.403C267.936 151.403 268.844 152.77 268.844 153.682C268.844 155.049 267.482 155.961 266.575 155.961C257.95 155.505 256.588 155.961 250.233 158.696C246.602 160.063 241.609 162.342 232.985 165.077C228.899 166.444 224.814 166.9 221.637 166.9ZM196.671 140.464C198.033 141.376 199.395 141.831 201.21 141.831C212.558 142.743 221.637 140.008 224.814 134.539C227.084 130.892 225.722 126.79 224.36 124.055C223.906 123.144 222.998 121.776 220.275 121.776C213.012 121.776 200.303 132.26 197.125 139.552C196.671 140.008 196.671 140.464 196.671 140.464ZM205.75 106.735C203.934 106.735 202.572 108.103 201.21 109.014C195.763 114.484 191.224 127.246 193.494 135.45C199.395 128.613 209.835 114.484 208.473 108.558C208.473 107.647 208.019 107.191 207.111 106.735C206.203 106.735 205.75 106.735 205.75 106.735Z" fill="white"/>
</g>
<defs>
<clipPath id="clip0">
<rect width="299" height="467" fill="white"/>
</clipPath>
</defs>
</svg>
